<svg version="1.1" width="200" height="200" id="svg2" xmlns="http://www.w3.org/2000/svg"><svg width="281" height="332.6" fill="none" version="1.1" id="svg1"><path d="M99.793 14.001c-11.842 0-22.081 1.604-31.028 4.655-8.998 3.206-16.548 7.705-22.598 13.755A56.109 56.109 0 0 0 32.204 54.08a83.362 83.362 0 0 0-4.81 29.321v15.928h-.051v38.423h.052l48.093.362v47.886h29.321v-47.886h26.684v47.886h41.164l-.103-92.825c.362-12.618-1.5-25.236-5.43-37.233-3.207-9.205-8.533-17.583-15.514-24.305a59.936 59.936 0 0 0-22.96-13.446 98.772 98.772 0 0 0-28.857-4.189ZM101.5 66.18a57.188 57.188 0 0 1 15.307 2.586c5.171 1.654 9.308 4.499 12.152 8.377 2.896 3.982 4.5 9.309 4.5 16.031v5.275H66.8v-6.257a27.253 27.253 0 0 1 2.276-11.894 21.72 21.72 0 0 1 6.722-7.964 21.41 21.41 0 0 1 10.24-4.5A56.367 56.367 0 0 1 101.5 66.18Zm-74.157 89.826v29.787H57.13v-29.787z" fill="#fff" style="fill:#000;stroke-width:.517132" id="path1"/></svg><style id="style1">@media (prefers-color-scheme:light){:root{filter:none}}@media (prefers-color-scheme:dark){:root{filter:contrast(.3846153846153846) brightness(4.5)}}</style></svg>