<svg xmlns="http://www.w3.org/2000/svg" version="1.1" xmlns:xlink="http://www.w3.org/1999/xlink" xmlns:svgjs="http://svgjs.com/svgjs" width="300" height="332.6"><svg width="300" height="332.6" fill="none" xmlns="http://www.w3.org/2000/svg"><path d="M140.1 0c-22.9 0-42.7 3.1-60 9-17.4 6.2-32 14.9-43.7 26.6a108.5 108.5 0 0 0-27 41.9 161.2 161.2 0 0 0-9.3 56.7V165H0v74.3h.1l93 .7v92.6h56.7V240h51.6v92.6H281l-.2-179.5c.7-24.4-2.9-48.8-10.5-72-6.2-17.8-16.5-34-30-47a115.9 115.9 0 0 0-44.4-26A191 191 0 0 0 140.1 0Zm3.3 100.9c10 .3 20 2 29.6 5 10 3.2 18 8.7 23.5 16.2 5.6 7.7 8.7 18 8.7 31v10.2H76.3v-12.1a52.7 52.7 0 0 1 4.4-23 42 42 0 0 1 13-15.4 41.4 41.4 0 0 1 19.8-8.7 109 109 0 0 1 29.9-3.2zM0 274.6v57.6h57.6v-57.6z" fill="#fff" style="fill:#000"></path></svg><style>@media (prefers-color-scheme: light) { :root { filter: none; } }
@media (prefers-color-scheme: dark) { :root { filter: contrast(0.3846153846153846) brightness(4.5); } }
</style></svg>