<?xml version="1.0" encoding="UTF-8" standalone="no"?>
<svg
   version="1.1"
   width="200"
   height="200"
   id="svg2"
   xmlns="http://www.w3.org/2000/svg"
   xmlns:svg="http://www.w3.org/2000/svg">
  <defs
     id="defs2" />
  <svg
     width="281"
     height="332.60001"
     fill="none"
     version="1.1"
     id="svg1">
    <path
       d="m 99.793147,14.001406 c -11.842313,0 -22.081519,1.603108 -31.027896,4.654184 C 59.767161,21.861806 52.21704,26.360852 46.1666,32.411291 A 56.108779,56.108779 0 0 0 32.204047,54.079106 83.361614,83.361614 0 0 0 27.394723,83.400467 v 15.927654 h -0.05171 V 137.751 h 0.05171 l 48.093239,0.36199 v 47.88639 h 29.321358 v -47.88639 h 26.68399 v 47.88639 h 41.16368 l -0.10343,-92.825125 c 0.362,-12.618011 -1.49968,-25.236022 -5.42988,-37.233476 -3.20621,-9.204942 -8.53267,-17.582474 -15.51395,-24.305185 A 59.935553,59.935553 0 0 0 128.64909,18.190172 98.772136,98.772136 0 0 0 99.793147,14.001406 Z m 1.706533,52.178579 c 5.17132,0.15514 10.34263,1.034263 15.3071,2.585658 5.17131,1.654821 9.30837,4.499045 12.15259,8.377532 2.89594,3.981913 4.49904,9.308369 4.49904,16.03108 v 5.274742 H 66.800151 V 92.191705 A 27.252835,27.252835 0 0 1 69.07553,80.297678 21.719527,21.719527 0 0 1 75.798241,72.333851 21.409248,21.409248 0 0 1 86.037447,67.834806 56.367345,56.367345 0 0 1 101.49968,66.179985 Z M 27.34301,156.00574 v 29.78678 h 29.78678 v -29.78678 z"
       fill="#fff"
       style="fill:#000000;stroke-width:0.517132"
       id="path1" />
  </svg>
  <style
     id="style1">@media (prefers-color-scheme: light) { :root { filter: none; } }
@media (prefers-color-scheme: dark) { :root { filter: contrast(0.3846153846153846) brightness(4.5); } }
</style>
</svg>
