<svg width="50" height="90" viewBox="0 0 145 216" xmlns="http://www.w3.org/2000/svg"><path style="fill:none;stroke:#fff;stroke-width:32;stroke-dasharray:none;stroke-dashoffset:0;paint-order:fill markers stroke" d="M-686.667 1467.267c-42.105 0-78.502 5.474-110.364 15.882-31.863 10.956-58.61 26.298-80.231 47.115-22.23 20.625-39.185 45.943-49.507 73.955-11.38 29.034-17.068 62.999-17.068 100.25v54.49h-.202v131.337h.202l170.874 1.38v163.634h104.005v-163.634h94.753v163.634h146.216l-.346-317.425c1.244-43.125-5.304-86.134-19.349-127.102-11.29-31.568-30.207-60.102-55.188-83.26-23.204-21.01-51.01-36.743-81.369-46.025-31.862-9.313-66.012-14.231-102.426-14.231zm5.938 178.385a207.4 207.4 0 0 1 54.384 8.967c18.207 5.478 33.007 15.338 43.248 28.486 10.242 13.695 15.912 31.772 15.912 54.78v18.073h-236.69v-21.352c-.526-13.917 2.204-27.768 7.975-40.538 5.69-10.956 13.651-20.281 23.893-27.403 10.241-7.669 21.623-13.152 36.417-15.343a207.552 207.552 0 0 1 54.861-5.67zm-263.222 307.206v101.714h105.645v-101.714z" transform="matrix(.26458 0 0 .26458 254.314 -383.981)"/><path d="M-961.187 2267.786v-154.338h49.715q20.458 0 36.782 9.329 16.324 9.222 25.44 26.182 9.223 16.854 9.329 37.842v7.102q0 21.2-9.01 38.055-8.905 16.748-25.229 26.288-16.218 9.434-36.252 9.54zm37.207-125.611v96.99h12.932q16.006 0 24.592-11.342 8.586-11.448 8.586-33.92v-6.678q0-22.366-8.586-33.708-8.586-11.342-25.016-11.342zm200.342 64.13h-59.997v61.48h-37.206v-154.337h103.245v28.727h-66.039v35.51h59.997zm61.162 61.48h-37.1v-154.337h37.1zm63.07-28.62h64.767v28.62h-101.973v-154.337h37.207zm176.174-36.782h-58.512v36.783h69.113v28.62h-106.32v-154.338h106.532v28.727h-69.325v32.542h58.512z" style="fill:#fff" aria-label="DFILE" transform="matrix(.26458 0 0 .26458 254.314 -383.981)"/></svg>